<svg xmlns="http://www.w3.org/2000/svg" viewBox="0 0 200 200" width="200" height="200">
  <g fill="white" stroke="white" stroke-width="2">
    <line x1="85" y1="50" x2="85" y2="20"/>
    <circle cx="85" cy="18" r="4"/>
    <line x1="93" y1="48" x2="93" y2="16"/>
    <circle cx="93" cy="14" r="4"/>
    <line x1="101" y1="47" x2="101" y2="15"/>
    <circle cx="101" cy="13" r="4"/>
    <line x1="109" y1="48" x2="109" y2="16"/>
    <circle cx="109" cy="14" r="4"/>
    <line x1="117" y1="50" x2="117" y2="20"/>
    <circle cx="117" cy="18" r="4"/>
    <rect x="80" y="50" width="42" height="28" rx="5"/>
    <line x1="101" y1="78" x2="101" y2="115"/>
    <line x1="88" y1="115" x2="88" y2="155"/>
    <line x1="96" y1="115" x2="96" y2="150"/>
    <line x1="104" y1="115" x2="104" y2="150"/>
    <line x1="112" y1="115" x2="112" y2="155"/>
  </g>
</svg>